<svg xmlns="http://www.w3.org/2000/svg" viewBox="0 0 100 100">
<defs>
<linearGradient id="s" x1="0.15" y1="0.1" x2="0.9" y2="0.95">
<stop offset="0" stop-color="#7a7a88"/><stop offset="0.45" stop-color="#44444f"/><stop offset="1" stop-color="#17171d"/>
</linearGradient>
<radialGradient id="g" cx="0.5" cy="0.5" r="0.5"><stop offset="0" stop-color="#000" stop-opacity="0.38"/><stop offset="1" stop-color="#000" stop-opacity="0"/></radialGradient>
</defs>
<ellipse cx="50" cy="91" rx="34" ry="6" fill="url(#g)"/>
<g fill="url(#s)" stroke="#08080b" stroke-width="3.4" stroke-linejoin="round" stroke-linecap="round">
<path d="M40.5 48 C42.5 61 37 70 31 80 L69 80 C63 70 57.5 61 59.5 48 Z"/>
<path d="M35 49 a15 4.2 0 1 0 30 0 a15 4.2 0 1 0 -30 0 Z"/>
<path d="M50 13 C63 24 66 34 59 47 H41 C34 34 37 24 50 13 Z"/>
<path d="M45.8 10 a4.2 4.2 0 1 0 8.4 0 a4.2 4.2 0 1 0 -8.4 0 Z"/>
<path d="M22 90 C22 84 26 81 31 80 L69 80 C74 81 78 84 78 90 Z"/>
</g>
<g fill="none" stroke="#d8d8e2" stroke-width="2.6" stroke-linecap="round" opacity="0.7">
<path d="M53 22 L45 33"/>
</g>

<ellipse cx="44" cy="30" rx="3.5" ry="7" fill="#b9b9c6" opacity="0.45" transform="rotate(-20 44 30)"/>
</svg>
